<?xml version="1.0" encoding="UTF-8" standalone="no"?>
<!-- Created with Inkscape (http://www.inkscape.org/) -->

<svg
   xmlns:svg="http://www.w3.org/2000/svg"
   xmlns="http://www.w3.org/2000/svg"
   version="1.1"
   width="80"
   height="80"
   viewBox="0 0 80 80"
   id="svg2"
   xml:space="preserve">
<g
   transform="matrix(0.80834041,0,0,0.80834041,-0.18826016,7.9253155)"
   id="g3093"><g
     id="g2987"><path
       d="m 24.444,23.188 c -0.887,5.359 -3.128,8.594 -6.042,8.525 -3.13,-0.078 -5.229,-4.447 -6.045,-8.501 -1.109,-5.498 2.61,-8.497 5.973,-8.497 3.363,0 7.027,2.999 6.114,8.473 z"
       id="path14"
       style="fill:none;stroke:#424242;stroke-width:4;stroke-miterlimit:10" /><path
       d="m 23.741,37.86 h -0.308 c -0.09,0 -0.187,0.026 -0.272,0.067 -1.019,0.553 -2.642,1.396 -4.829,1.396 -2.356,0 -3.758,-0.844 -4.773,-1.396 -0.087,-0.041 -0.185,-0.067 -0.28,-0.067 h -0.214 c -0.052,0 -0.095,0.008 -0.143,0.017 -3.445,0.82 -6.658,2.594 -9.275,5.133 -0.11,0.114 -0.177,0.262 -0.177,0.426 l 10e-4,2.803 29.787,0.023 -0.009,-2.826 c 0,-0.164 -0.068,-0.312 -0.181,-0.426 -2.56,-2.484 -5.688,-4.239 -9.05,-5.072 -0.083,-0.049 -0.179,-0.078 -0.277,-0.078"
       id="torso_16_"
       style="fill:none;stroke:#424242;stroke-width:4;stroke-miterlimit:10" /></g><g
     id="g2983"><path
       d="M 60.478,30.611 C 58.77,40.902 54.465,47.115 48.865,46.98 42.861,46.832 38.826,38.443 37.256,30.658 35.13,20.097 42.27,14.338 48.728,14.338 c 6.461,0 13.498,5.76 11.75,16.273 z"
       id="path17"
       style="fill:none;stroke:#424242;stroke-width:4;stroke-miterlimit:10" /><path
       d="m 58.164,52.238 h -0.59 c -0.179,0 -0.359,0.049 -0.528,0.129 -1.952,1.057 -4.623,1.646 -7.336,1.646 -2.714,0 -5.391,-0.59 -7.338,-1.646 -0.167,-0.08 -0.353,-0.129 -0.535,-0.129 h -0.42 c -0.101,0 -0.181,0.012 -0.266,0.028 -6.624,1.574 -12.791,4.979 -17.82,9.857 -0.207,0.22 -0.337,0.503 -0.337,0.815 l 0.003,5.385 53.443,0.041 -0.014,-5.426 c 0,-0.312 -0.137,-0.596 -0.346,-0.815 C 71.161,57.352 65.151,53.982 58.697,52.374 58.53,52.289 58.35,52.238 58.164,52.238"
       id="torso_14_"
       style="fill:none;stroke:#424242;stroke-width:4;stroke-miterlimit:10" /></g><g
     transform="translate(-88.65659,-30.513407)"
     id="g3055"><path
       d="m 163.64659,53.701407 c 0.887,5.359 3.128,8.594 6.042,8.525 3.13,-0.078 5.229,-4.447 6.045,-8.501 1.109,-5.498 -2.61,-8.497 -5.973,-8.497 -3.363,0 -7.027,2.999 -6.114,8.473 z"
       id="path14-8"
       style="fill:none;stroke:#424242;stroke-width:4;stroke-miterlimit:10" /><path
       d="m 164.34959,68.373407 0.308,0 c 0.09,0 0.187,0.026 0.272,0.067 1.019,0.553 2.642,1.396 4.829,1.396 2.356,0 3.758,-0.844 4.773,-1.396 0.087,-0.041 0.185,-0.067 0.28,-0.067 l 0.214,0 c 0.052,0 0.095,0.008 0.143,0.017 3.445,0.82 6.658,2.594 9.275,5.133 0.11,0.114 0.177,0.262 0.177,0.426 l -0.001,2.803 -29.787,0.023 0.009,-2.826 c 0,-0.164 0.068,-0.312 0.181,-0.426 2.56,-2.484 5.688,-4.239 9.05,-5.072 0.083,-0.049 0.179,-0.078 0.277,-0.078"
       id="torso_16_-8"
       style="fill:none;stroke:#424242;stroke-width:4;stroke-miterlimit:10" /></g></g></svg>
