<svg id="Oransje" xmlns="http://www.w3.org/2000/svg" viewBox="0 0 40 40"><defs><style>.cls-1{fill:#efefef;}.cls-2{fill:#ed5823;}</style></defs><title>Logo-Cristin-RGB</title><g id="Favikon-3" data-name="Favikon"><path id="_3_" data-name="&lt;3&gt;" class="cls-1" d="M25.74,25.68a8,8,0,1,1,0-11.31A8,8,0,0,1,25.74,25.68ZM25.15,15a7.17,7.17,0,1,0,0,10.14A7.17,7.17,0,0,0,25.15,15Z"/><path id="_2_" data-name="&lt;2&gt;" class="cls-1" d="M24.07,24a5.67,5.67,0,1,1,0-8A5.67,5.67,0,0,1,24.07,24Zm-0.59-7.42a4.83,4.83,0,1,0,0,6.84A4.83,4.83,0,0,0,23.48,16.61Z"/><path id="_1_" data-name="&lt;1&gt;" class="cls-1" d="M22.4,22.39a3.33,3.33,0,1,1,0-4.71A3.33,3.33,0,0,1,22.4,22.39Zm-0.59-4.12a2.5,2.5,0,1,0,0,3.54A2.5,2.5,0,0,0,21.81,18.27Z"/><path id="_3_2" data-name="&lt;3&gt;" class="cls-2" d="M25.74,14.36a8,8,0,0,0-11.31,0l0,0L15,15l0,0a7.17,7.17,0,1,1,0,10.14l-0.59.59A8,8,0,0,0,25.74,14.36Z"/><path id="_2_2" data-name="&lt;2&gt;" class="cls-2" d="M24.06,16l-0.59.59h0a4.83,4.83,0,1,1-6.86,0L16,16a5.67,5.67,0,1,0,8,0h0Z"/><path id="_1_2" data-name="&lt;1&gt;" class="cls-2" d="M21.82,21.79h0a2.5,2.5,0,1,1,0-3.54l0.59-.59a3.33,3.33,0,1,0,0,4.72h0Z"/></g></svg>