<?xml version="1.0" encoding="utf-8"?>
<!-- Generator: Adobe Illustrator 16.0.0, SVG Export Plug-In . SVG Version: 6.00 Build 0)  -->
<!DOCTYPE svg PUBLIC "-//W3C//DTD SVG 1.1//EN" "http://www.w3.org/Graphics/SVG/1.1/DTD/svg11.dtd">
<svg version="1.1" id="Layer_1" xmlns="http://www.w3.org/2000/svg" xmlns:xlink="http://www.w3.org/1999/xlink" x="0px" y="0px"
	 width="80px" height="80px" viewBox="0 0 80 80" enable-background="new 0 0 80 80" xml:space="preserve">
<g>
	<g id="ikoner_3_">
		<g id="person_1_">
		</g>
		<g id="person">
		</g>
		<g id="result">
			<g>
				<polygon fill="#755499" points="32.355,72.645 1.812,72.645 1.812,68.691 34.248,68.734 40.105,74.01 46.176,68.734 
					78.352,68.727 78.352,72.613 47.387,72.559 40.105,79.309 				"/>
				<path fill="#755499" d="M34.248,64.878l5.857,4.802l6.07-4.787l32.36-0.015L78.521,4.404L1.734,4.419l-0.03,60.459H34.248z
					 M38.163,63.857l-3.944-2.763L5.757,61.08V8.243l32.406,0.002V63.857z M74.268,61.08H46.161l-4.022,2.762L42.107,8.245
					l32.19-0.002L74.268,61.08z"/>
			</g>
		</g>
		<g id="award">
		</g>
		<g id="diploma">
		</g>
		<g id="cv">
			<g id="forsker_1_">
			</g>
		</g>
		<g id="calendar">
		</g>
		<g id="quotes">
		</g>
		<g id="contactinfo">
		</g>
		<g id="institute">
		</g>
		<g id="university">
		</g>
		<g id="menu">
		</g>
	</g>
</g>
</svg>
