<?xml version="1.0" encoding="UTF-8" standalone="no"?>
<svg
   xmlns:dc="http://purl.org/dc/elements/1.1/"
   xmlns:cc="http://creativecommons.org/ns#"
   xmlns:rdf="http://www.w3.org/1999/02/22-rdf-syntax-ns#"
   xmlns:svg="http://www.w3.org/2000/svg"
   xmlns="http://www.w3.org/2000/svg"
   xmlns:sodipodi="http://sodipodi.sourceforge.net/DTD/sodipodi-0.dtd"
   xmlns:inkscape="http://www.inkscape.org/namespaces/inkscape"
   id="Oransje"
   viewBox="0 0 1280 257.42"
   version="1.1"
   inkscape:version="0.48.5 r10040"
   width="100%"
   height="100%"
   sodipodi:docname="Hovedlogo-Stor-Farge-PTSans.svg">
  <metadata
     id="metadata121">
    <rdf:RDF>
      <cc:Work
         rdf:about="">
        <dc:format>image/svg+xml</dc:format>
        <dc:type
           rdf:resource="http://purl.org/dc/dcmitype/StillImage" />
        <dc:title>Logo-Cristin-RGB</dc:title>
      </cc:Work>
    </rdf:RDF>
  </metadata>
  <sodipodi:namedview
     pagecolor="#ffffff"
     bordercolor="#666666"
     borderopacity="1"
     objecttolerance="10"
     gridtolerance="10"
     guidetolerance="10"
     inkscape:pageopacity="0"
     inkscape:pageshadow="2"
     inkscape:window-width="1849"
     inkscape:window-height="943"
     id="namedview119"
     showgrid="false"
     showguides="true"
     inkscape:guide-bbox="true"
     inkscape:zoom="0.79903066"
     inkscape:cx="632.33227"
     inkscape:cy="82.118018"
     inkscape:window-x="0"
     inkscape:window-y="0"
     inkscape:window-maximized="0"
     inkscape:current-layer="Oransje" />
  <defs
     id="defs3">
    <style
       id="style5">.cls-1{fill:#efefef;}.cls-2{fill:#ed5823;}.cls-3{fill:none;stroke:#e0e0e0;stroke-miterlimit:10;}.cls-4{fill:#232323;}</style>
  </defs>
  <title
     id="title7">Logo-Cristin-RGB</title>
  <g
     data-name="Symbol"
     id="Symbol-11">
    <path
       style="fill:#efefef"
       inkscape:connector-curvature="0"
       d="m 187.44,192.62 a 92.42,92.42 0 1 1 0,-130.58 92.62,92.62 0 0 1 0,130.58 z M 183.8,65.67 a 87.28,87.28 0 1 0 0,123.32 87.47,87.47 0 0 0 0,-123.32 z"
       class="cls-1"
       data-name="&lt;6&gt;"
       id="_6_" />
    <path
       style="fill:#efefef"
       inkscape:connector-curvature="0"
       d="m 177.26,182.46 a 78,78 0 1 1 0,-110.26 78.21,78.21 0 0 1 0,110.26 z M 173.63,75.82 a 72.91,72.91 0 1 0 0,103 73.07,73.07 0 0 0 0,-103 z"
       class="cls-1"
       data-name="&lt;5&gt;"
       id="_5_" />
    <path
       style="fill:#efefef"
       inkscape:connector-curvature="0"
       d="m 167.09,172.3 a 63.66,63.66 0 1 1 0,-90 63.8,63.8 0 0 1 0,90 z M 163.45,86 a 58.53,58.53 0 1 0 0,82.7 58.66,58.66 0 0 0 0,-82.7 z"
       class="cls-1"
       data-name="&lt;4&gt;"
       id="_4_" />
    <path
       style="fill:#efefef"
       inkscape:connector-curvature="0"
       d="m 156.91,162.15 a 49.29,49.29 0 1 1 0,-69.64 49.4,49.4 0 0 1 0,69.64 z m -3.63,-66 a 44.15,44.15 0 1 0 0,62.39 44.25,44.25 0 0 0 0,-62.4 z"
       class="cls-1"
       data-name="&lt;3&gt;"
       id="_3_" />
    <path
       style="fill:#efefef"
       inkscape:connector-curvature="0"
       d="m 146.58,152 a 34.91,34.91 0 1 1 0,-49.33 35,35 0 0 1 0,49.33 z M 143,106.34 a 29.78,29.78 0 1 0 0,42.07 29.84,29.84 0 0 0 0,-42.07 z"
       class="cls-1"
       data-name="&lt;2&gt;"
       id="_2_" />
    <path
       style="fill:#efefef"
       inkscape:connector-curvature="0"
       d="m 136.28,141.93 a 20.54,20.54 0 1 1 0,-29 20.58,20.58 0 0 1 0,29 z m -3.63,-25.39 a 15.4,15.4 0 1 0 0,21.76 15.44,15.44 0 0 0 0,-21.76 z"
       class="cls-1"
       data-name="&lt;1&gt;"
       id="_1_" />
    <path
       style="fill:#ed5823"
       inkscape:connector-curvature="0"
       d="M 187.44,62 A 92.61,92.61 0 0 0 57.25,61.4 l 3.63,3.63 A 87.27,87.27 0 1 1 60.59,189.26 L 57,192.93 A 92.41,92.41 0 0 0 187.44,62 z"
       class="cls-2"
       data-name="&lt;6&gt;"
       id="_6_2" />
    <path
       style="fill:#ed5823"
       inkscape:connector-curvature="0"
       d="M 174,76.23 A 72.9,72.9 0 1 1 70.41,75.82 l 0.32,-0.3 -3.63,-3.63 -0.32,0.3 a 78,78 0 1 0 110.85,0.41 z"
       class="cls-2"
       data-name="&lt;5&gt;"
       id="_5_2" />
    <path
       style="fill:#ed5823"
       inkscape:connector-curvature="0"
       d="M 163.85,86.4 A 58.52,58.52 0 1 1 80.61,86 c 0.22,-0.22 0.45,-0.43 0.68,-0.64 l -3.63,-3.63 c -0.23,0.22 -0.46,0.42 -0.68,0.65 a 63.66,63.66 0 1 0 90.51,0.41 z"
       class="cls-2"
       data-name="&lt;4&gt;"
       id="_4_2" />
    <path
       style="fill:#ed5823"
       inkscape:connector-curvature="0"
       d="M 156.91,92.51 A 49.39,49.39 0 0 0 87.74,91.94 l 3.63,3.63 a 44.15,44.15 0 1 1 0.07,63.59 l -3.63,3.63 a 49.280038,49.280038 0 0 0 69.1,-70.28 z"
       class="cls-2"
       data-name="&lt;3&gt;"
       id="_3_2" />
    <path
       style="fill:#ed5823"
       inkscape:connector-curvature="0"
       d="m 143.59,107 a 29.77,29.77 0 1 1 -42.79,-0.67 l 0.21,-0.2 -3.63,-3.63 -0.21,0.2 a 34.91,34.91 0 1 0 50.06,0.67 z"
       class="cls-2"
       data-name="&lt;2&gt;"
       id="_2_2" />
    <path
       style="fill:#ed5823"
       inkscape:connector-curvature="0"
       d="m 133.14,137.76 c -0.16,0.18 -0.32,0.37 -0.49,0.54 a 15.4,15.4 0 1 1 0,-21.76 c 0.1,0.1 0.19,0.21 0.29,0.32 l 3.63,-3.63 c -0.1,-0.1 -0.18,-0.21 -0.29,-0.32 a 20.54,20.54 0 1 0 0,29 c 0.17,-0.17 0.32,-0.36 0.49,-0.54 z"
       class="cls-2"
       data-name="&lt;1&gt;"
       id="_1_2" />
  </g>
  <line
     style="fill:none;stroke:#e0e0e0;stroke-miterlimit:10"
     id="line23"
     y2="219.53999"
     x2="231.53"
     y1="34.529999"
     x1="231.53"
     class="cls-3" />
  <g
     transform="translate(0,-6.7138672e-6)"
     style="font-size:86px;font-style:normal;font-variant:normal;font-weight:bold;font-stretch:normal;line-height:125%;letter-spacing:-0.89999998px;word-spacing:0px;fill:#232323;fill-opacity:1;stroke:none;font-family:PT Sans;-inkscape-font-specification:PT Sans Bold"
     id="flowRoot3118">
    <path
       d="m 306.98621,114.76644 c -1.83371,1.3175 -4.16952,2.2632 -7.00745,2.8371 -2.83801,0.57389 -5.74771,0.86083 -8.72913,0.86084 -3.6131,-1e-5 -7.0394,-0.55903 -10.2789,-1.67707 -3.23954,-1.11804 -6.09194,-2.92414 -8.55722,-5.4183 -2.4653,-2.49415 -4.42887,-5.73367 -5.89071,-9.71857 -1.46186,-3.984863 -2.19279,-8.815272 -2.19278,-14.491241 -10e-6,-5.905115 0.81709,-10.850127 2.45129,-14.835052 1.63419,-3.984835 3.75567,-7.195484 6.36444,-9.631958 2.60875,-2.436365 5.51846,-4.184725 8.72913,-5.245087 3.21063,-1.060242 6.42128,-1.590392 9.63196,-1.590454 3.43982,6.2e-5 6.34953,0.229269 8.72912,0.687622 2.37952,0.458475 4.34265,1.002623 5.88941,1.632447 l -2.32007,9.975769 c -1.3193,-0.629834 -2.88176,-1.088248 -4.68738,-1.375245 -1.8057,-0.286895 -3.99892,-0.430369 -6.57965,-0.43042 -4.75914,5.1e-5 -8.58611,1.691548 -11.48093,5.074494 -2.89485,3.383038 -4.34227,8.628994 -4.34225,15.737884 -2e-5,3.096951 0.34379,5.920923 1.03143,8.471924 0.68761,2.551045 1.73391,4.729387 3.13892,6.535037 1.40496,1.80567 3.15376,3.21022 5.2464,4.21365 2.09258,1.00345 4.515,1.50517 7.26727,1.50516 2.57898,1e-5 4.75733,-0.25807 6.53503,-0.77423 1.77763,-0.51615 3.32609,-1.1749 4.64539,-1.97626 z"
       style=""
       id="path3774" />
    <path
       d="m 313.36135,57.662312 c 1.31925,-0.229147 2.73823,-0.444357 4.25696,-0.64563 1.51871,-0.201152 3.03786,-0.35906 4.55746,-0.473724 1.51958,-0.114543 2.9963,-0.200277 4.43018,-0.257202 1.43384,-0.0568 2.75265,-0.08524 3.95645,-0.0853 2.8082,6.1e-5 5.574,0.258138 8.29739,0.774231 2.72334,0.516214 5.1602,1.40461 7.31058,2.665192 2.15031,1.260697 3.87024,2.994622 5.15979,5.201782 1.28947,2.207265 1.93422,4.973935 1.93427,8.300018 -5e-5,4.930622 -1.14652,8.943934 -3.43943,12.039948 -2.29298,3.096078 -5.35972,5.245988 -9.20022,6.449737 l 4.21234,2.666504 13.76031,22.961849 -13.58709,0 -13.67371,-23.562862 -6.19385,-1.118042 0,24.680904 -11.78143,0 z m 18.05927,9.028321 c -1.2038,5e-5 -2.39314,0.02892 -3.56803,0.08661 -1.17492,0.05779 -2.07819,0.172394 -2.70981,0.343811 l 0,17.458252 4.9892,0 c 3.26837,3.3e-5 5.87713,-0.745328 7.82629,-2.236084 1.94911,-1.490686 2.92368,-3.955975 2.92371,-7.395874 -3e-5,-2.578975 -0.80269,-4.599847 -2.40799,-6.062622 -1.60535,-1.462678 -3.95648,-2.194041 -7.05337,-2.194091 z"
       style=""
       id="path3776" />
    <path
       d="m 365.40038,57.058675 11.78143,0 0,60.201045 -11.78143,0 z"
       style=""
       id="path3778" />
    <path
       d="m 413.79134,101.09273 c -4e-5,-1.835388 -0.67366,-3.326547 -2.02088,-4.473478 -1.34728,-1.14689 -3.03877,-2.193194 -5.07449,-3.138916 -2.03577,-0.945674 -4.24298,-1.920242 -6.62164,-2.923706 -2.3787,-1.003411 -4.58591,-2.236055 -6.62165,-3.697937 -2.03575,-1.461821 -3.72725,-3.281918 -5.07449,-5.460297 -1.34725,-2.178306 -2.02088,-4.959411 -2.02087,-8.343323 -1e-5,-2.923658 0.48728,-5.460684 1.46185,-7.611084 0.97456,-2.150296 2.36511,-3.94196 4.17166,-5.375 1.80653,-1.432924 3.94244,-2.493226 6.40774,-3.180908 2.46528,-0.687561 5.21664,-1.031371 8.25409,-1.031433 3.49758,6.2e-5 6.7944,0.301005 9.89048,0.902832 3.09601,0.601948 5.64747,1.47591 7.65439,2.621887 l -3.69794,9.889161 c -1.26155,-0.801303 -3.15382,-1.531791 -5.67682,-2.191468 -2.52306,-0.659576 -5.24643,-0.989389 -8.17011,-0.989441 -2.75226,5.2e-5 -4.8593,0.544637 -6.32113,1.633759 -1.46187,1.089221 -2.1928,2.55151 -2.19278,4.386871 -2e-5,1.719974 0.67361,3.153393 2.02087,4.300263 1.34723,1.146951 3.03873,2.20769 5.0745,3.18222 2.03572,0.974606 4.24337,1.977605 6.62295,3.009003 2.37953,1.031467 4.58674,2.278108 6.62164,3.739929 2.03484,1.461883 3.7259,3.267982 5.07319,5.418304 1.3472,2.150374 2.02083,4.830872 2.02087,8.041504 -4e-5,3.210668 -0.53019,5.976898 -1.59045,8.298708 -1.06035,2.32182 -2.55107,4.25696 -4.47217,5.80542 -1.92118,1.54846 -4.24343,2.69537 -6.96677,3.44073 -2.72339,0.74536 -5.7184,1.11804 -8.98502,1.11805 -4.30071,-1e-5 -8.08525,-0.40156 -11.35363,-1.20466 -3.2684,-0.8031 -5.67595,-1.6062 -7.22266,-2.4093 l 3.78455,-10.05975 c 0.62987,0.34295 1.44653,0.71519 2.44998,1.11673 1.00343,0.40156 2.1359,0.77424 3.39743,1.11804 1.2615,0.34382 2.59431,0.63033 3.99844,0.85953 1.4041,0.22921 2.85152,0.34382 4.34226,0.34381 3.49757,1e-5 6.17807,-0.58744 8.0415,-1.76236 1.86337,-1.17489 2.79507,-2.96612 2.79511,-5.37369 z"
       style=""
       id="path3780" />
    <path
       d="m 475.18149,67.551472 -17.54486,0 0,49.708248 -11.78144,0 0,-49.708248 -17.63147,0 0,-10.492797 46.95777,0 z"
       style=""
       id="path3782" />
    <path
       d="m 481.62225,57.058675 11.78144,0 0,60.201045 -11.78144,0 z"
       style=""
       id="path3784" />
    <path
       d="m 519.00601,85.870564 -4.73199,-9.461365 -0.4278,0 1.37525,9.461365 0,31.389156 -11.18042,0 0,-60.628841 8.60052,0 22.78864,32.076782 4.55877,9.201538 0.43042,0 -1.37524,-9.201538 0,-31.648986 11.17779,0 0,60.631465 -8.5979,0 z"
       style=""
       id="path3786" />
  </g>
  <g
     transform="translate(-2.9517212,-6.7138672e-6)"
     style="font-size:48px;font-style:normal;font-variant:normal;font-weight:normal;font-stretch:normal;line-height:125%;letter-spacing:-0.5px;word-spacing:0px;fill:#232323;fill-opacity:1;stroke:none;font-family:PT Sans;-inkscape-font-specification:PT Sans"
     id="flowRoot3955">
    <path
       d="m 290.17725,182.89144 c -0.95999,0.73535 -2.17581,1.24707 -3.64746,1.53516 -1.4717,0.28808 -3.03957,0.43213 -4.70362,0.43213 -2.01661,0 -3.9048,-0.344 -5.66455,-1.03199 -1.75977,-0.68798 -3.29566,-1.73583 -4.60766,-3.14355 -1.31202,-1.40771 -2.35206,-3.20776 -3.12012,-5.40015 -0.76807,-2.19237 -1.1521,-4.79246 -1.1521,-7.80029 0,-3.13572 0.42407,-5.79954 1.27222,-7.99145 0.84813,-2.19187 1.96825,-3.98386 3.36035,-5.37598 1.39208,-1.39206 2.95189,-2.40817 4.67944,-3.04834 1.72753,-0.6401 3.48729,-0.96017 5.2793,-0.96021 1.92088,4e-5 3.48923,0.10404 4.70507,0.31202 1.2158,0.20804 2.25584,0.48831 3.12012,0.84082 l -0.96094,3.5039 c -1.53615,-0.7363 -3.72804,-1.10446 -6.57568,-1.10449 -1.31154,3e-5 -2.60744,0.24002 -3.88769,0.71997 -1.28029,0.48001 -2.42433,1.26395 -3.43213,2.35181 -1.00782,1.08791 -1.81569,2.51199 -2.42359,4.27221 -0.60791,1.76028 -0.91187,3.92019 -0.91186,6.47974 -10e-6,2.30373 0.28783,4.31959 0.86352,6.04761 0.57568,1.72803 1.36767,3.16822 2.37598,4.32055 1.00829,1.15235 2.19237,2.01637 3.55225,2.59205 1.35984,0.57568 2.83958,0.86352 4.4392,0.86352 1.44041,0 2.69652,-0.14379 3.76832,-0.4314 1.07175,-0.28759 1.9758,-0.65551 2.71215,-1.10375 z"
       style=""
       id="path3789" />
    <path
       d="m 298.62012,160.28304 0,13.68018 c -10e-6,1.24806 0.072,2.344 0.21606,3.28784 0.14404,0.94386 0.39208,1.72779 0.74414,2.35181 0.35204,0.62403 0.83202,1.09595 1.43994,1.41577 0.6079,0.31983 1.37621,0.47974 2.30494,0.47974 0.86326,0 1.63109,-0.13599 2.30346,-0.40796 0.67235,-0.27197 1.27245,-0.64795 1.8003,-1.12793 0.52781,-0.47998 0.99168,-1.03198 1.3916,-1.65601 0.39988,-0.62402 0.72776,-1.28759 0.98364,-1.99072 l 0,-16.03272 3.84082,0 0,17.18409 c -2e-5,1.15235 0.04,2.34448 0.12012,3.57641 0.0801,1.23194 0.21579,2.31177 0.40722,3.2395 l -2.63965,0 -0.95947,-3.79248 -0.24023,0 c -0.73635,1.24805 -1.72853,2.28809 -2.97656,3.12012 -1.24807,0.83203 -2.83205,1.24805 -4.75196,1.24805 -1.28028,0 -2.40821,-0.15186 -3.38379,-0.45557 -0.97559,-0.30371 -1.79151,-0.8396 -2.44775,-1.60767 -0.65626,-0.76806 -1.15235,-1.80004 -1.48828,-3.09594 -0.33594,-1.29589 -0.50391,-2.93603 -0.50391,-4.92041 l 0,-14.4961 z"
       style=""
       id="path3791" />
    <path
       d="m 331.86719,163.97884 c -0.95998,-0.32029 -1.8716,-0.48044 -2.73487,-0.48046 -1.37598,2e-5 -2.46412,0.37624 -3.2644,1.12866 -0.8003,0.75246 -1.29615,1.70436 -1.48755,2.85571 l 0,16.80029 -3.84082,0 0,-24 2.68799,0 0.7207,2.92823 0.1919,0 c 0.60741,-1.08787 1.33519,-1.92796 2.18335,-2.52027 0.84813,-0.59226 1.92845,-0.8884 3.24096,-0.88842 0.92772,2e-5 1.96727,0.16018 3.11866,0.48046 z"
       style=""
       id="path3793" />
    <path
       d="m 347.67969,163.97884 c -0.95998,-0.32029 -1.8716,-0.48044 -2.73487,-0.48046 -1.37598,2e-5 -2.46412,0.37624 -3.2644,1.12866 -0.8003,0.75246 -1.29615,1.70436 -1.48755,2.85571 l 0,16.80029 -3.84082,0 0,-24 2.68799,0 0.7207,2.92823 0.1919,0 c 0.60741,-1.08787 1.33519,-1.92796 2.18335,-2.52027 0.84813,-0.59226 1.92845,-0.8884 3.24096,-0.88842 0.92772,2e-5 1.96727,0.16018 3.11866,0.48046 z"
       style=""
       id="path3795" />
    <path
       d="m 369.68408,182.36263 c -0.95998,0.76856 -2.16774,1.37671 -3.62329,1.82447 -1.45558,0.44775 -2.99977,0.67163 -4.63257,0.67163 -1.82325,0 -3.40699,-0.2959 -4.75122,-0.8877 -1.34424,-0.59179 -2.44825,-1.43969 -3.31201,-2.5437 -0.86377,-1.104 -1.50367,-2.42407 -1.91968,-3.9602 -0.41602,-1.53613 -0.62402,-3.26415 -0.62402,-5.18409 0,-4.09568 0.91186,-7.21555 2.73559,-9.35962 1.82373,-2.14401 4.43188,-3.21604 7.82447,-3.21606 1.08787,2e-5 2.17576,0.1199 3.26367,0.35962 1.08787,0.23977 2.0637,0.69582 2.92749,1.36816 0.86375,0.67239 1.56785,1.62454 2.1123,2.85645 0.54442,1.23195 0.81663,2.85573 0.81665,4.87134 -2e-5,1.05567 -0.0962,2.22364 -0.28857,3.5039 l -15.40869,0 c -10e-6,1.40822 0.14404,2.65626 0.43213,3.74414 0.28808,1.0879 0.73607,2.00782 1.34399,2.75977 0.6079,0.75196 1.3999,1.32788 2.37598,1.72778 0.97606,0.39991 2.1682,0.59986 3.57641,0.59986 1.08788,0 2.17577,-0.1919 3.26368,-0.57569 1.08787,-0.38378 1.90379,-0.83154 2.44775,-1.34326 z m -8.25586,-19.29492 c -1.8877,2e-5 -3.39942,0.49587 -4.53515,1.48755 -1.13575,0.99172 -1.81593,2.68776 -2.04053,5.08814 l 11.90478,0 c -10e-6,-2.4326 -0.46412,-4.1367 -1.39233,-5.11231 -0.92824,-0.97556 -2.24049,-1.46336 -3.93677,-1.46338 z"
       style=""
       id="path3797" />
    <path
       d="m 391.44824,184.28304 0,-13.68017 c -2e-5,-2.49608 -0.36012,-4.37596 -1.08032,-5.63965 -0.72023,-1.26365 -2.0403,-1.89549 -3.96021,-1.89551 -1.6963,2e-5 -3.09644,0.45583 -4.20043,1.36743 -1.10402,0.91164 -1.87965,2.05544 -2.32691,3.4314 l 0,16.4165 -3.84082,0 0,-24 2.68799,0 0.7207,2.92823 0.1919,0 c 0.76757,-1.0244 1.7993,-1.86448 3.09521,-2.52027 1.29589,-0.65573 2.83983,-0.98362 4.63184,-0.98364 1.31248,2e-5 2.46458,0.15188 3.4563,0.45557 0.99168,0.30373 1.81565,0.83962 2.47192,1.60766 0.65623,0.76809 1.15232,1.80007 1.48828,3.09595 0.33592,1.29592 0.50388,2.93605 0.50391,4.92041 l 0,14.49609 z"
       style=""
       id="path3799" />
    <path
       d="m 398.62109,160.28304 3.74414,0 0,-4.75195 3.84082,-1.10449 0,5.85644 6.52735,0 0,3.36036 -6.52735,0 0,13.29492 c 0,1.66407 0.208,2.84009 0.62403,3.52807 0.416,0.68799 1.12011,1.03199 2.1123,1.03199 0.83202,0 1.53588,-0.0879 2.11158,-0.26368 0.57567,-0.17577 1.21556,-0.40771 1.91967,-0.6958 l 0.86426,2.92823 c -0.86427,0.41601 -1.80836,0.75195 -2.83227,1.00781 -1.02394,0.25586 -2.1277,0.38379 -3.31128,0.38379 -1.95216,0 -3.32838,-0.552 -4.12867,-1.65601 -0.80029,-1.104 -1.20044,-2.9519 -1.20044,-5.5437 l 0,-14.01562 -3.74414,0 z"
       style=""
       id="path3801" />
    <path
       d="m 430.32959,151.01937 c 1.21581,-0.22457 2.61572,-0.40084 4.19971,-0.52881 1.58397,-0.12789 3.03221,-0.19186 4.34472,-0.19189 1.47167,3e-5 2.87157,0.16019 4.19971,0.48047 1.32811,0.32034 2.49607,0.84842 3.50391,1.58423 1.00779,0.73587 1.81589,1.69583 2.42431,2.87988 0.60838,1.18411 0.91258,2.6238 0.9126,4.31909 -2e-5,2.62405 -0.71999,4.75222 -2.15991,6.38452 -1.43996,1.63234 -3.26394,2.72048 -5.47193,3.26441 l 2.30274,1.77539 8.35254,13.29638 -4.65528,0 -9.26513,-14.49609 -4.70362,-0.71924 0,15.21533 -3.98437,0 z m 8.64111,2.73633 c -0.41602,3e-5 -0.84815,3e-5 -1.29638,0 -0.44826,3e-5 -0.88039,0.0159 -1.29639,0.0476 -0.41603,0.0318 -0.80812,0.0637 -1.17627,0.0959 -0.36817,0.0323 -0.66407,0.0801 -0.8877,0.14356 l 0,12.38379 3.74415,0 c 2.20799,2e-5 4.03196,-0.54393 5.47192,-1.63184 1.43992,-1.08787 2.15989,-2.78367 2.15991,-5.0874 -2e-5,-1.72849 -0.59206,-3.15256 -1.77612,-4.27222 -1.1841,-1.1196 -2.8318,-1.67941 -4.94312,-1.67944 z"
       style=""
       id="path3803" />
    <path
       d="m 475.55908,182.36263 c -0.95998,0.76856 -2.16774,1.37671 -3.62329,1.82447 -1.45558,0.44775 -2.99977,0.67163 -4.63257,0.67163 -1.82325,0 -3.40699,-0.2959 -4.75122,-0.8877 -1.34424,-0.59179 -2.44825,-1.43969 -3.31201,-2.5437 -0.86377,-1.104 -1.50367,-2.42407 -1.91968,-3.9602 -0.41602,-1.53613 -0.62402,-3.26415 -0.62402,-5.18409 0,-4.09568 0.91186,-7.21555 2.73559,-9.35962 1.82373,-2.14401 4.43188,-3.21604 7.82447,-3.21606 1.08787,2e-5 2.17576,0.1199 3.26367,0.35962 1.08787,0.23977 2.0637,0.69582 2.92749,1.36816 0.86375,0.67239 1.56785,1.62454 2.1123,2.85645 0.54442,1.23195 0.81663,2.85573 0.81665,4.87134 -2e-5,1.05567 -0.0962,2.22364 -0.28857,3.5039 l -15.40869,0 c -10e-6,1.40822 0.14404,2.65626 0.43213,3.74414 0.28808,1.0879 0.73607,2.00782 1.34399,2.75977 0.6079,0.75196 1.3999,1.32788 2.37598,1.72778 0.97606,0.39991 2.1682,0.59986 3.57641,0.59986 1.08788,0 2.17577,-0.1919 3.26368,-0.57569 1.08787,-0.38378 1.90379,-0.83154 2.44775,-1.34326 z m -8.25586,-19.29492 c -1.8877,2e-5 -3.39942,0.49587 -4.53515,1.48755 -1.13575,0.99172 -1.81593,2.68776 -2.04053,5.08814 l 11.90478,0 c -10e-6,-2.4326 -0.46412,-4.1367 -1.39233,-5.11231 -0.92824,-0.97556 -2.24049,-1.46336 -3.93677,-1.46338 z"
       style=""
       id="path3805" />
    <path
       d="m 492.47461,177.7557 c -10e-6,-0.95995 -0.2881,-1.71215 -0.86426,-2.25659 -0.57618,-0.54443 -1.2881,-1.00048 -2.13574,-1.36817 -0.84767,-0.36766 -1.77564,-0.71947 -2.78394,-1.05542 -1.0083,-0.33592 -1.93628,-0.76805 -2.78393,-1.29638 -0.84766,-0.52831 -1.55958,-1.20848 -2.13574,-2.04053 -0.57618,-0.83202 -0.86426,-1.95164 -0.86426,-3.35889 0,-2.30466 0.656,-3.99289 1.96802,-5.06469 1.312,-1.07176 3.13597,-1.60765 5.47192,-1.60767 1.7285,2e-5 3.17674,0.15188 4.34473,0.45557 1.16795,0.30373 2.18357,0.66359 3.04687,1.07959 l -0.91113,3.16845 c -0.73635,-0.35154 -1.62453,-0.66331 -2.66455,-0.9353 -1.04005,-0.27195 -2.15187,-0.40794 -3.33545,-0.40796 -1.40821,2e-5 -2.44044,0.24001 -3.09668,0.71997 -0.65626,0.48 -0.98438,1.31179 -0.98438,2.49536 0,0.83205 0.28808,1.48 0.86426,1.94385 0.57617,0.46388 1.28832,0.8799 2.13648,1.24805 0.84813,0.36818 1.77611,0.72828 2.78393,1.08032 1.0078,0.35206 1.93578,0.81593 2.78394,1.3916 0.84813,0.5757 1.56028,1.30372 2.13647,2.18408 0.57616,0.88038 0.86424,2.0403 0.86426,3.47974 -2e-5,1.02442 -0.16823,1.98462 -0.50464,2.88062 -0.33644,0.89599 -0.85646,1.66406 -1.56006,2.30419 -0.70363,0.64014 -1.57545,1.14405 -2.61548,1.51172 -1.04005,0.36768 -2.26417,0.55152 -3.67236,0.55152 -1.82423,0 -3.37623,-0.17603 -4.65601,-0.52808 -1.27978,-0.35205 -2.3518,-0.76782 -3.21606,-1.24731 l 1.15137,-3.26368 c 0.73632,0.41602 1.69653,0.79981 2.88061,1.15137 1.18408,0.35157 2.38403,0.52735 3.59986,0.52735 1.37596,0 2.51195,-0.27197 3.40796,-0.81592 0.89598,-0.54394 1.34398,-1.51953 1.34399,-2.92676 z"
       style=""
       id="path3807" />
    <path
       d="m 519.18408,182.36263 c -0.95998,0.76856 -2.16774,1.37671 -3.62329,1.82447 -1.45558,0.44775 -2.99977,0.67163 -4.63257,0.67163 -1.82325,0 -3.40699,-0.2959 -4.75122,-0.8877 -1.34424,-0.59179 -2.44825,-1.43969 -3.31201,-2.5437 -0.86377,-1.104 -1.50367,-2.42407 -1.91968,-3.9602 -0.41602,-1.53613 -0.62402,-3.26415 -0.62402,-5.18409 0,-4.09568 0.91186,-7.21555 2.73559,-9.35962 1.82373,-2.14401 4.43188,-3.21604 7.82447,-3.21606 1.08787,2e-5 2.17576,0.1199 3.26367,0.35962 1.08787,0.23977 2.0637,0.69582 2.92749,1.36816 0.86375,0.67239 1.56785,1.62454 2.1123,2.85645 0.54442,1.23195 0.81663,2.85573 0.81665,4.87134 -2e-5,1.05567 -0.0962,2.22364 -0.28857,3.5039 l -15.40869,0 c -10e-6,1.40822 0.14404,2.65626 0.43213,3.74414 0.28808,1.0879 0.73607,2.00782 1.34399,2.75977 0.6079,0.75196 1.3999,1.32788 2.37598,1.72778 0.97606,0.39991 2.1682,0.59986 3.57641,0.59986 1.08788,0 2.17577,-0.1919 3.26368,-0.57569 1.08787,-0.38378 1.90379,-0.83154 2.44775,-1.34326 z m -8.25586,-19.29492 c -1.8877,2e-5 -3.39942,0.49587 -4.53515,1.48755 -1.13575,0.99172 -1.81593,2.68776 -2.04053,5.08814 l 11.90478,0 c -1e-5,-2.4326 -0.46412,-4.1367 -1.39233,-5.11231 -0.92824,-0.97556 -2.24049,-1.46336 -3.93677,-1.46338 z"
       style=""
       id="path3809" />
    <path
       d="m 525.15576,162.05843 c 1.21582,-0.73532 2.63183,-1.27902 4.24805,-1.6311 1.6162,-0.35203 3.30419,-0.52805 5.06396,-0.52808 1.66405,3e-5 2.99999,0.22391 4.00782,0.67164 1.00779,0.44777 1.77586,1.03176 2.3042,1.75195 0.5283,0.72023 0.88035,1.51223 1.05615,2.37598 0.17576,0.86378 0.26365,1.7278 0.26367,2.59204 -2e-5,1.91993 -0.0481,3.792 -0.14429,5.61621 -0.0962,1.82423 -0.1443,3.55225 -0.14428,5.18408 -2e-5,1.1836 0.0481,2.30347 0.14428,3.35962 0.0962,1.05615 0.2722,2.03247 0.52808,2.92895 l -2.83154,0 -1.00782,-3.36035 -0.24023,0 c -0.2881,0.44825 -0.64821,0.88819 -1.08032,1.31983 -0.43215,0.43164 -0.95217,0.81543 -1.56006,1.15136 -0.60793,0.33594 -1.31178,0.61597 -2.11157,0.84009 -0.79982,0.22412 -1.71193,0.33618 -2.73633,0.33618 -1.02345,0 -1.97535,-0.15991 -2.85572,-0.47973 -0.88037,-0.31983 -1.64038,-0.77588 -2.28002,-1.36817 -0.63966,-0.59228 -1.14356,-1.30444 -1.51172,-2.13647 -0.36817,-0.83203 -0.55225,-1.77588 -0.55225,-2.83155 0,-1.40819 0.28808,-2.58421 0.86426,-3.52807 0.57617,-0.94384 1.38427,-1.69579 2.42431,-2.25586 1.04004,-0.56005 2.28784,-0.95995 3.74341,-1.19971 1.45556,-0.23973 3.06371,-0.3596 4.82447,-0.35962 0.44725,2e-5 0.88694,2e-5 1.31909,0 0.43211,2e-5 0.8723,0.0318 1.32055,0.0952 0.0957,-0.95995 0.14354,-1.82372 0.14356,-2.59131 -2e-5,-1.76072 -0.35207,-2.9929 -1.05615,-3.69653 -0.70412,-0.7036 -1.9839,-1.0554 -3.83936,-1.05542 -0.54396,2e-5 -1.12794,0.0398 -1.75195,0.11938 -0.62403,0.0796 -1.26417,0.19143 -1.92041,0.33545 -0.65626,0.14406 -1.28028,0.32009 -1.87207,0.52808 -0.59181,0.20802 -1.11182,0.43996 -1.56006,0.6958 z m 6.81592,19.24805 c 0.89647,0 1.69652,-0.11987 2.40015,-0.35962 0.7036,-0.23974 1.31151,-0.5437 1.82373,-0.91186 0.51219,-0.36816 0.93626,-0.77612 1.27221,-1.22388 0.33592,-0.44775 0.58397,-0.87963 0.74414,-1.29565 l 0,-3.98438 c -0.44825,-0.0322 -0.90431,-0.0564 -1.36816,-0.0725 -0.46388,-0.0161 -0.91994,-0.0242 -1.36816,-0.0242 -0.9922,10e-6 -1.96022,0.0562 -2.90406,0.16846 -0.94385,0.11231 -1.77588,0.32032 -2.49609,0.62402 -0.72022,0.30372 -1.29615,0.71974 -1.72778,1.24805 -0.43165,0.52833 -0.64747,1.19239 -0.64746,1.99219 -10e-6,1.12012 0.39989,2.04004 1.1997,2.75976 0.7998,0.71973 1.82372,1.07959 3.07178,1.07959 z"
       style=""
       id="path3811" />
    <path
       d="m 560.17969,163.97884 c -0.95998,-0.32029 -1.8716,-0.48044 -2.73487,-0.48046 -1.37598,2e-5 -2.46412,0.37624 -3.2644,1.12866 -0.8003,0.75246 -1.29615,1.70436 -1.48755,2.85571 l 0,16.80029 -3.84082,0 0,-24 2.68799,0 0.7207,2.92823 0.1919,0 c 0.60741,-1.08787 1.33519,-1.92796 2.18335,-2.52027 0.84813,-0.59226 1.92845,-0.8884 3.24096,-0.88842 0.92772,2e-5 1.96727,0.16018 3.11866,0.48046 z"
       style=""
       id="path3813" />
    <path
       d="m 581.03271,182.69955 c -0.95998,0.7041 -2.09596,1.23999 -3.40795,1.60766 -1.31203,0.36768 -2.68825,0.55152 -4.12867,0.55152 -1.85548,0 -3.42335,-0.2959 -4.70361,-0.8877 -1.28028,-0.59179 -2.32837,-1.43969 -3.14429,-2.5437 -0.81592,-1.104 -1.40771,-2.43212 -1.77539,-3.98437 -0.36768,-1.55224 -0.55151,-3.27221 -0.55151,-5.15992 0,-4.06443 0.89599,-7.17649 2.68799,-9.33618 1.79198,-2.15964 4.36766,-3.23948 7.72705,-3.2395 1.53612,2e-5 2.84031,0.1199 3.9126,0.35962 1.07224,0.23977 2.04002,0.58376 2.90332,1.03198 l -1.10303,3.31201 c -0.73635,-0.41599 -1.55251,-0.74387 -2.44849,-0.98364 -0.89601,-0.23972 -1.85621,-0.3596 -2.88061,-0.35962 -4.54396,2e-5 -6.81593,3.0718 -6.81592,9.21533 -1e-5,1.21583 0.12011,2.37575 0.36035,3.47974 0.24023,1.10401 0.64037,2.08008 1.20044,2.92822 0.56005,0.84815 1.29613,1.52808 2.20825,2.0398 0.9121,0.51172 2.04003,0.76758 3.38379,0.76758 1.15135,0 2.18309,-0.17578 3.09522,-0.52735 0.91209,-0.35156 1.65623,-0.75146 2.23242,-1.1997 z"
       style=""
       id="path3815" />
    <path
       d="m 601.22949,184.28304 0,-13.68017 c -2e-5,-1.24803 -0.072,-2.34398 -0.21606,-3.28784 -0.14406,-0.94383 -0.40822,-1.72777 -0.79248,-2.35181 -0.3843,-0.624 -0.90432,-1.09593 -1.56006,-1.41577 -0.65578,-0.31981 -1.51198,-0.47972 -2.5686,-0.47974 -1.50392,2e-5 -2.86379,0.48782 -4.07959,1.46338 -1.21583,0.97561 -1.99952,2.23146 -2.35108,3.76758 l 0,15.98437 -3.84082,0 0,-33.60058 3.84082,0 0,12.28857 0.1919,0 c 0.83202,-0.99216 1.83202,-1.78415 3,-2.37597 1.16795,-0.59178 2.6157,-0.88768 4.34326,-0.8877 1.34373,2e-5 2.5117,0.15188 3.5039,0.45557 0.99217,0.30373 1.81639,0.83962 2.47266,1.60766 0.65623,0.76809 1.13621,1.80007 1.43994,3.09595 0.30369,1.29592 0.45554,2.93605 0.45557,4.92041 l 0,14.49609 z"
       style=""
       id="path3817" />
    <path
       d="m 625.21094,150.68246 3.98437,0 0,33.60058 -3.98437,0 z"
       style=""
       id="path3819" />
    <path
       d="m 652.79199,184.28304 0,-13.68017 c -2e-5,-2.49608 -0.36012,-4.37596 -1.08032,-5.63965 -0.72023,-1.26365 -2.0403,-1.89549 -3.96021,-1.89551 -1.6963,2e-5 -3.09644,0.45583 -4.20043,1.36743 -1.10402,0.91164 -1.87965,2.05544 -2.32691,3.4314 l 0,16.4165 -3.84082,0 0,-24 2.68799,0 0.7207,2.92823 0.1919,0 c 0.76757,-1.0244 1.7993,-1.86448 3.09521,-2.52027 1.29589,-0.65573 2.83983,-0.98362 4.63184,-0.98364 1.31248,2e-5 2.46458,0.15188 3.4563,0.45557 0.99168,0.30373 1.81565,0.83962 2.47192,1.60766 0.65623,0.76809 1.15232,1.80007 1.48828,3.09595 0.33592,1.29592 0.50388,2.93605 0.50391,4.92041 l 0,14.49609 z"
       style=""
       id="path3821" />
    <path
       d="m 660.49365,160.28304 3.74414,0 0,-1.34472 c 0,-1.47166 0.11987,-2.75144 0.35962,-3.83936 0.23974,-1.08786 0.63159,-1.9758 1.17554,-2.66382 0.54394,-0.68795 1.24804,-1.19991 2.1123,-1.53589 0.86425,-0.3359 1.93652,-0.50387 3.2168,-0.5039 1.02343,3e-5 1.92723,0.064 2.71143,0.19189 0.78416,0.12797 1.60838,0.36771 2.47265,0.71924 l -0.86426,3.2168 c -0.73634,-0.32028 -1.43238,-0.52829 -2.08813,-0.62403 -0.65577,-0.0957 -1.27174,-0.14352 -1.8479,-0.14355 -0.83204,3e-5 -1.47999,0.12796 -1.94385,0.38379 -0.46387,0.25589 -0.79981,0.63186 -1.00781,1.12793 -0.20802,0.49612 -0.33619,1.10403 -0.38452,1.82373 -0.0484,0.71975 -0.0725,1.5596 -0.0725,2.51953 l 0,0.67236 6.38379,0 0,3.36036 -6.38379,0 0,20.63964 -3.83936,0 0,-20.63964 -3.74414,0 z"
       style=""
       id="path3823" />
    <path
       d="m 676.57129,172.28304 c 0,-4.06443 0.9038,-7.17649 2.71142,-9.33618 1.80762,-2.15964 4.40771,-3.23948 7.8003,-3.2395 1.79198,2e-5 3.35203,0.29592 4.68017,0.8877 1.32811,0.59182 2.42406,1.43972 3.28785,2.5437 0.86374,1.10402 1.50364,2.43214 1.91967,3.98437 0.416,1.55226 0.624,3.27223 0.62403,5.15991 -3e-5,4.06446 -0.90408,7.17652 -2.71216,9.33619 -1.80813,2.15966 -4.40798,3.2395 -7.79956,3.2395 -1.79201,0 -3.35206,-0.2959 -4.68018,-0.8877 -1.32813,-0.59179 -2.42408,-1.43969 -3.28784,-2.5437 -0.86377,-1.104 -1.50367,-2.43212 -1.91968,-3.98437 -0.41602,-1.55224 -0.62402,-3.27221 -0.62402,-5.15992 z m 3.98291,0 c -1e-5,1.21583 0.12011,2.3838 0.36035,3.50391 0.24023,1.12012 0.6162,2.0962 1.12793,2.92822 0.51171,0.83204 1.18359,1.50391 2.01563,2.01563 0.83202,0.51172 1.84032,0.76758 3.0249,0.76758 4.35154,0.0322 6.52732,-3.03955 6.52734,-9.21534 -2e-5,-1.24803 -0.11989,-2.43211 -0.35962,-3.55224 -0.23976,-1.1201 -0.61574,-2.09618 -1.12793,-2.92822 -0.51222,-0.83202 -1.18434,-1.49583 -2.01635,-1.99146 -0.83205,-0.49558 -1.83986,-0.74339 -3.02344,-0.74341 -4.35255,-0.0322 -6.52882,3.03957 -6.52881,9.21533 z"
       style=""
       id="path3825" />
    <path
       d="m 714.42969,163.97884 c -0.95998,-0.32029 -1.8716,-0.48044 -2.73487,-0.48046 -1.37598,2e-5 -2.46412,0.37624 -3.2644,1.12866 -0.8003,0.75246 -1.29615,1.70436 -1.48755,2.85571 l 0,16.80029 -3.84082,0 0,-24 2.68799,0 0.7207,2.92823 0.1919,0 c 0.60741,-1.08787 1.33519,-1.92796 2.18335,-2.52027 0.84813,-0.59226 1.92845,-0.8884 3.24096,-0.88842 0.92772,2e-5 1.96727,0.16018 3.11866,0.48046 z"
       style=""
       id="path3827" />
    <path
       d="m 732.97852,184.28304 0,-13.58349 c -2e-5,-1.28026 -0.0559,-2.39232 -0.16773,-3.33618 -0.11183,-0.94383 -0.3279,-1.73583 -0.64819,-2.37598 -0.32033,-0.64012 -0.77639,-1.1201 -1.36817,-1.43994 -0.59181,-0.31981 -1.36769,-0.47972 -2.32763,-0.47974 -1.47169,2e-5 -2.69557,0.44802 -3.67163,1.344 -0.97609,0.89601 -1.65602,2.01588 -2.0398,3.35962 l 0,16.51171 -3.84082,0 0,-24 2.68799,0 0.7207,2.92823 0.1919,0 c 0.86327,-1.0244 1.86302,-1.86448 2.99926,-2.52027 1.13622,-0.65573 2.61645,-0.98362 4.44068,-0.98364 1.53611,2e-5 2.79197,0.29592 3.76758,0.8877 0.97556,0.59182 1.73582,1.62404 2.28076,3.09668 0.73533,-1.24803 1.75095,-2.2241 3.04687,-2.92823 1.29588,-0.70407 2.76023,-1.05613 4.39307,-1.05615 1.34372,2e-5 2.47946,0.15188 3.40723,0.45557 0.9277,0.30373 1.69576,0.83962 2.3042,1.60766 0.60836,0.76809 1.04854,1.80813 1.32055,3.12012 0.27194,1.31203 0.40793,2.97633 0.40796,4.99292 l 0,14.39941 -3.84082,0 0,-14.44775 c -3e-5,-1.15233 -0.0559,-2.15257 -0.16772,-3.00073 -0.11185,-0.84813 -0.33573,-1.55199 -0.67164,-2.11157 -0.33596,-0.55955 -0.80007,-0.97533 -1.39233,-1.24732 -0.59231,-0.27195 -1.36844,-0.40794 -2.32837,-0.40796 -1.59963,2e-5 -2.84743,0.44802 -3.74341,1.344 -0.89602,0.89601 -1.53591,2.17555 -1.91967,3.83862 l 0,16.03271 z"
       style=""
       id="path3829" />
    <path
       d="m 757.03076,162.05843 c 1.21582,-0.73532 2.63183,-1.27902 4.24805,-1.6311 1.6162,-0.35203 3.30419,-0.52805 5.06396,-0.52808 1.66405,3e-5 2.99999,0.22391 4.00782,0.67164 1.00779,0.44777 1.77586,1.03176 2.3042,1.75195 0.5283,0.72023 0.88035,1.51223 1.05615,2.37598 0.17576,0.86378 0.26365,1.7278 0.26367,2.59204 -2e-5,1.91993 -0.0481,3.792 -0.14429,5.61621 -0.0962,1.82423 -0.1443,3.55225 -0.14428,5.18408 -2e-5,1.1836 0.0481,2.30347 0.14428,3.35962 0.0962,1.05615 0.2722,2.03247 0.52808,2.92895 l -2.83154,0 -1.00782,-3.36035 -0.24023,0 c -0.2881,0.44825 -0.64821,0.88819 -1.08032,1.31983 -0.43215,0.43164 -0.95217,0.81543 -1.56006,1.15136 -0.60793,0.33594 -1.31178,0.61597 -2.11157,0.84009 -0.79982,0.22412 -1.71193,0.33618 -2.73633,0.33618 -1.02345,0 -1.97535,-0.15991 -2.85572,-0.47973 -0.88037,-0.31983 -1.64038,-0.77588 -2.28002,-1.36817 -0.63966,-0.59228 -1.14356,-1.30444 -1.51172,-2.13647 -0.36817,-0.83203 -0.55225,-1.77588 -0.55225,-2.83155 0,-1.40819 0.28808,-2.58421 0.86426,-3.52807 0.57617,-0.94384 1.38427,-1.69579 2.42431,-2.25586 1.04004,-0.56005 2.28784,-0.95995 3.74341,-1.19971 1.45556,-0.23973 3.06371,-0.3596 4.82447,-0.35962 0.44725,2e-5 0.88694,2e-5 1.31909,0 0.43211,2e-5 0.8723,0.0318 1.32055,0.0952 0.0957,-0.95995 0.14354,-1.82372 0.14356,-2.59131 -2e-5,-1.76072 -0.35207,-2.9929 -1.05615,-3.69653 -0.70412,-0.7036 -1.9839,-1.0554 -3.83936,-1.05542 -0.54396,2e-5 -1.12794,0.0398 -1.75195,0.11938 -0.62403,0.0796 -1.26417,0.19143 -1.92041,0.33545 -0.65626,0.14406 -1.28028,0.32009 -1.87207,0.52808 -0.59181,0.20802 -1.11182,0.43996 -1.56006,0.6958 z m 6.81592,19.24805 c 0.89647,0 1.69652,-0.11987 2.40015,-0.35962 0.7036,-0.23974 1.31151,-0.5437 1.82373,-0.91186 0.51219,-0.36816 0.93626,-0.77612 1.27221,-1.22388 0.33592,-0.44775 0.58397,-0.87963 0.74414,-1.29565 l 0,-3.98438 c -0.44825,-0.0322 -0.90431,-0.0564 -1.36816,-0.0725 -0.46388,-0.0161 -0.91994,-0.0242 -1.36816,-0.0242 -0.9922,10e-6 -1.96022,0.0562 -2.90406,0.16846 -0.94385,0.11231 -1.77588,0.32032 -2.49609,0.62402 -0.72022,0.30372 -1.29615,0.71974 -1.72778,1.24805 -0.43165,0.52833 -0.64747,1.19239 -0.64746,1.99219 -10e-6,1.12012 0.39989,2.04004 1.1997,2.75976 0.7998,0.71973 1.82372,1.07959 3.07178,1.07959 z"
       style=""
       id="path3831" />
    <path
       d="m 777.55859,160.28304 3.74414,0 0,-4.75195 3.84082,-1.10449 0,5.85644 6.52735,0 0,3.36036 -6.52735,0 0,13.29492 c 0,1.66407 0.208,2.84009 0.62403,3.52807 0.416,0.68799 1.12011,1.03199 2.1123,1.03199 0.83202,0 1.53588,-0.0879 2.11158,-0.26368 0.57567,-0.17577 1.21556,-0.40771 1.91967,-0.6958 l 0.86426,2.92823 c -0.86427,0.41601 -1.80836,0.75195 -2.83227,1.00781 -1.02394,0.25586 -2.1277,0.38379 -3.31128,0.38379 -1.95216,0 -3.32838,-0.552 -4.12867,-1.65601 -0.80029,-1.104 -1.20044,-2.9519 -1.20044,-5.5437 l 0,-14.01562 -3.74414,0 z"
       style=""
       id="path3833" />
    <path
       d="m 797.35547,160.28304 3.84082,0 0,24 -3.84082,0 z m -0.81592,-7.29638 c 0,-0.73532 0.24804,-1.36716 0.74414,-1.89551 0.49609,-0.52829 1.12793,-0.79245 1.89551,-0.79248 0.76855,3e-5 1.4248,0.26419 1.96875,0.79248 0.54394,0.52835 0.81591,1.16019 0.81592,1.89551 -1e-5,0.73636 -0.27198,1.34451 -0.81592,1.82446 -0.54395,0.48001 -1.2002,0.72 -1.96875,0.71997 -0.76758,3e-5 -1.39942,-0.23996 -1.89551,-0.71997 -0.4961,-0.47995 -0.74414,-1.0881 -0.74414,-1.82446 z"
       style=""
       id="path3835" />
    <path
       d="m 807.54004,172.28304 c 0,-4.06443 0.9038,-7.17649 2.71142,-9.33618 1.80762,-2.15964 4.40771,-3.23948 7.8003,-3.2395 1.79198,2e-5 3.35203,0.29592 4.68017,0.8877 1.32811,0.59182 2.42406,1.43972 3.28785,2.5437 0.86374,1.10402 1.50364,2.43214 1.91967,3.98437 0.416,1.55226 0.624,3.27223 0.62403,5.15991 -3e-5,4.06446 -0.90408,7.17652 -2.71216,9.33619 -1.80813,2.15966 -4.40798,3.2395 -7.79956,3.2395 -1.79201,0 -3.35206,-0.2959 -4.68018,-0.8877 -1.32813,-0.59179 -2.42408,-1.43969 -3.28784,-2.5437 -0.86377,-1.104 -1.50367,-2.43212 -1.91968,-3.98437 -0.41602,-1.55224 -0.62402,-3.27221 -0.62402,-5.15992 z m 3.98291,0 c -1e-5,1.21583 0.12011,2.3838 0.36035,3.50391 0.24023,1.12012 0.6162,2.0962 1.12793,2.92822 0.51171,0.83204 1.18359,1.50391 2.01563,2.01563 0.83202,0.51172 1.84032,0.76758 3.0249,0.76758 4.35154,0.0322 6.52732,-3.03955 6.52734,-9.21534 -2e-5,-1.24803 -0.11989,-2.43211 -0.35962,-3.55224 -0.23976,-1.1201 -0.61574,-2.09618 -1.12793,-2.92822 -0.51222,-0.83202 -1.18434,-1.49583 -2.01635,-1.99146 -0.83205,-0.49558 -1.83986,-0.74339 -3.02344,-0.74341 -4.35255,-0.0322 -6.52882,3.03957 -6.52881,9.21533 z"
       style=""
       id="path3837" />
    <path
       d="m 849.47949,184.28304 0,-13.68017 c -2e-5,-2.49608 -0.36012,-4.37596 -1.08032,-5.63965 -0.72023,-1.26365 -2.0403,-1.89549 -3.96021,-1.89551 -1.6963,2e-5 -3.09644,0.45583 -4.20043,1.36743 -1.10402,0.91164 -1.87965,2.05544 -2.32691,3.4314 l 0,16.4165 -3.84082,0 0,-24 2.68799,0 0.7207,2.92823 0.1919,0 c 0.76757,-1.0244 1.7993,-1.86448 3.09521,-2.52027 1.29589,-0.65573 2.83983,-0.98362 4.63184,-0.98364 1.31248,2e-5 2.46458,0.15188 3.4563,0.45557 0.99168,0.30373 1.81565,0.83962 2.47192,1.60766 0.65623,0.76809 1.15232,1.80007 1.48828,3.09595 0.33592,1.29592 0.50388,2.93605 0.50391,4.92041 l 0,14.49609 z"
       style=""
       id="path3839" />
    <path
       d="m 887.7168,175.73861 c -2e-5,-1.34374 -0.39992,-2.43969 -1.19971,-3.28784 -0.79982,-0.84813 -1.79982,-1.60009 -3,-2.25586 -1.20021,-0.65575 -2.50441,-1.27171 -3.9126,-1.8479 -1.40821,-0.57616 -2.71216,-1.2722 -3.91186,-2.08814 -1.19972,-0.8159 -2.19972,-1.82395 -3,-3.02417 -0.8003,-1.20017 -1.20045,-2.728 -1.20044,-4.58349 -1e-5,-2.624 0.9121,-4.70407 2.73633,-6.24024 1.82421,-1.5361 4.41649,-2.30416 7.77685,-2.3042 1.95116,4e-5 3.72679,0.14408 5.32691,0.43213 1.60007,0.28812 2.84836,0.65629 3.74487,1.1045 l -1.19971,3.5039 c -0.73635,-0.35251 -1.81642,-0.68869 -3.24023,-1.00854 -1.42385,-0.3198 -3.03176,-0.47971 -4.82373,-0.47974 -2.11232,3e-5 -3.69655,0.47195 -4.75269,1.41577 -1.05616,0.94388 -1.58423,2.05594 -1.58423,3.33618 0,1.24807 0.40014,2.28811 1.20044,3.12012 0.80029,0.83205 1.80028,1.57595 3,2.23169 1.1997,0.65578 2.50365,1.30373 3.91187,1.94385 1.40818,0.64015 2.71214,1.38429 3.91186,2.23242 1.19969,0.84816 2.19969,1.86427 3,3.04834 0.80027,1.18409 1.20042,2.65602 1.20044,4.41577 -2e-5,1.43946 -0.25612,2.73536 -0.76831,3.8877 -0.51223,1.15234 -1.26418,2.14453 -2.25586,2.97656 -0.99172,0.83203 -2.19167,1.47192 -3.59985,1.91968 -1.40822,0.44775 -3.00832,0.67163 -4.80029,0.67163 -2.4004,0 -4.38453,-0.18384 -5.9524,-0.55152 -1.56787,-0.36767 -2.78394,-0.77563 -3.64819,-1.22387 l 1.34473,-3.60059 c 0.73534,0.41602 1.82323,0.82398 3.26367,1.22388 1.44042,0.3999 3.05663,0.59985 4.84863,0.59985 1.05565,0 2.04759,-0.104 2.97583,-0.31201 0.92821,-0.208 1.72826,-0.54394 2.40015,-1.00781 0.67185,-0.46387 1.20774,-1.04785 1.60766,-1.75196 0.39989,-0.70409 0.59984,-1.53612 0.59986,-2.49609 z"
       style=""
       id="path3841" />
    <path
       d="m 904.2207,175.83529 1.34473,4.6084 0.23877,0 1.05615,-4.65674 4.65674,-15.50391 3.8877,0 -7.1045,21.55225 c -0.54396,1.56738 -1.07984,3.08716 -1.60766,4.55933 -0.52785,1.47216 -1.11183,2.78417 -1.75196,3.93603 -0.64014,1.15185 -1.36011,2.07177 -2.15991,2.75977 -0.79981,0.68798 -1.72803,1.03197 -2.78467,1.03198 -1.15137,-1e-5 -2.09522,-0.15968 -2.83154,-0.479 l 0.67236,-3.31202 c 0.41601,0.16015 0.81592,0.24023 1.19971,0.24024 0.89648,-1e-5 1.76074,-0.47218 2.59277,-1.41651 0.83203,-0.94434 1.52001,-2.56836 2.06397,-4.87207 l -9.64893,-24 4.41651,0 z"
       style=""
       id="path3843" />
    <path
       d="m 929.63086,177.7557 c -10e-6,-0.95995 -0.2881,-1.71215 -0.86426,-2.25659 -0.57618,-0.54443 -1.2881,-1.00048 -2.13574,-1.36817 -0.84767,-0.36766 -1.77564,-0.71947 -2.78394,-1.05542 -1.0083,-0.33592 -1.93628,-0.76805 -2.78393,-1.29638 -0.84766,-0.52831 -1.55958,-1.20848 -2.13574,-2.04053 -0.57618,-0.83202 -0.86426,-1.95164 -0.86426,-3.35889 0,-2.30466 0.656,-3.99289 1.96802,-5.06469 1.312,-1.07176 3.13597,-1.60765 5.47192,-1.60767 1.7285,2e-5 3.17674,0.15188 4.34473,0.45557 1.16795,0.30373 2.18357,0.66359 3.04687,1.07959 l -0.91113,3.16845 c -0.73635,-0.35154 -1.62453,-0.66331 -2.66455,-0.9353 -1.04005,-0.27195 -2.15187,-0.40794 -3.33545,-0.40796 -1.40821,2e-5 -2.44044,0.24001 -3.09668,0.71997 -0.65626,0.48 -0.98438,1.31179 -0.98438,2.49536 0,0.83205 0.28808,1.48 0.86426,1.94385 0.57617,0.46388 1.28832,0.8799 2.13648,1.24805 0.84813,0.36818 1.77611,0.72828 2.78393,1.08032 1.0078,0.35206 1.93578,0.81593 2.78394,1.3916 0.84813,0.5757 1.56028,1.30372 2.13647,2.18408 0.57616,0.88038 0.86424,2.0403 0.86426,3.47974 -2e-5,1.02442 -0.16823,1.98462 -0.50464,2.88062 -0.33644,0.89599 -0.85646,1.66406 -1.56006,2.30419 -0.70363,0.64014 -1.57545,1.14405 -2.61548,1.51172 -1.04005,0.36768 -2.26417,0.55152 -3.67236,0.55152 -1.82423,0 -3.37623,-0.17603 -4.65601,-0.52808 -1.27978,-0.35205 -2.3518,-0.76782 -3.21606,-1.24731 l 1.15137,-3.26368 c 0.73632,0.41602 1.69653,0.79981 2.88061,1.15137 1.18408,0.35157 2.38403,0.52735 3.59986,0.52735 1.37596,0 2.51195,-0.27197 3.40796,-0.81592 0.89598,-0.54394 1.34398,-1.51953 1.34399,-2.92676 z"
       style=""
       id="path3845" />
    <path
       d="m 935.65234,160.28304 3.74414,0 0,-4.75195 3.84082,-1.10449 0,5.85644 6.52735,0 0,3.36036 -6.52735,0 0,13.29492 c 0,1.66407 0.208,2.84009 0.62403,3.52807 0.416,0.68799 1.12011,1.03199 2.1123,1.03199 0.83202,0 1.53588,-0.0879 2.11158,-0.26368 0.57567,-0.17577 1.21556,-0.40771 1.91967,-0.6958 l 0.86426,2.92823 c -0.86427,0.41601 -1.80836,0.75195 -2.83227,1.00781 -1.02394,0.25586 -2.1277,0.38379 -3.31128,0.38379 -1.95216,0 -3.32838,-0.552 -4.12867,-1.65601 -0.80029,-1.104 -1.20044,-2.9519 -1.20044,-5.5437 l 0,-14.01562 -3.74414,0 z"
       style=""
       id="path3847" />
    <path
       d="m 972.15283,182.36263 c -0.95998,0.76856 -2.16774,1.37671 -3.62329,1.82447 -1.45558,0.44775 -2.99977,0.67163 -4.63257,0.67163 -1.82325,0 -3.40699,-0.2959 -4.75122,-0.8877 -1.34424,-0.59179 -2.44825,-1.43969 -3.31201,-2.5437 -0.86377,-1.104 -1.50367,-2.42407 -1.91968,-3.9602 -0.41602,-1.53613 -0.62402,-3.26415 -0.62402,-5.18409 0,-4.09568 0.91186,-7.21555 2.73559,-9.35962 1.82373,-2.14401 4.43188,-3.21604 7.82447,-3.21606 1.08787,2e-5 2.17576,0.1199 3.26367,0.35962 1.08787,0.23977 2.0637,0.69582 2.92749,1.36816 0.86375,0.67239 1.56785,1.62454 2.1123,2.85645 0.54442,1.23195 0.81663,2.85573 0.81665,4.87134 -2e-5,1.05567 -0.0962,2.22364 -0.28857,3.5039 l -15.40869,0 c -1e-5,1.40822 0.14404,2.65626 0.43213,3.74414 0.28808,1.0879 0.73607,2.00782 1.34399,2.75977 0.6079,0.75196 1.3999,1.32788 2.37598,1.72778 0.97606,0.39991 2.1682,0.59986 3.57641,0.59986 1.08788,0 2.17577,-0.1919 3.26368,-0.57569 1.08787,-0.38378 1.90379,-0.83154 2.44775,-1.34326 z m -8.25586,-19.29492 c -1.8877,2e-5 -3.39942,0.49587 -4.53515,1.48755 -1.13575,0.99172 -1.81593,2.68776 -2.04053,5.08814 l 11.90478,0 c -1e-5,-2.4326 -0.46412,-4.1367 -1.39233,-5.11231 -0.92824,-0.97556 -2.24049,-1.46336 -3.93677,-1.46338 z"
       style=""
       id="path3849" />
    <path
       d="m 992.57227,184.28304 0,-13.58349 c -2e-5,-1.28026 -0.0559,-2.39232 -0.16773,-3.33618 -0.11183,-0.94383 -0.3279,-1.73583 -0.64819,-2.37598 -0.32033,-0.64012 -0.77639,-1.1201 -1.36817,-1.43994 -0.59181,-0.31981 -1.36769,-0.47972 -2.32763,-0.47974 -1.47169,2e-5 -2.69557,0.44802 -3.67163,1.344 -0.97609,0.89601 -1.65602,2.01588 -2.0398,3.35962 l 0,16.51171 -3.84082,0 0,-24 2.68799,0 0.7207,2.92823 0.1919,0 c 0.86327,-1.0244 1.86302,-1.86448 2.99926,-2.52027 1.13622,-0.65573 2.61645,-0.98362 4.44068,-0.98364 1.53611,2e-5 2.79197,0.29592 3.76758,0.8877 0.97556,0.59182 1.73582,1.62404 2.28076,3.09668 0.73533,-1.24803 1.75095,-2.2241 3.04687,-2.92823 1.29588,-0.70407 2.76026,-1.05613 4.39306,-1.05615 1.3437,2e-5 2.4795,0.15188 3.4072,0.45557 0.9277,0.30373 1.6958,0.83962 2.3042,1.60766 0.6084,0.76809 1.0486,1.80813 1.3206,3.12012 0.2719,1.31203 0.4079,2.97633 0.408,4.99292 l 0,14.39941 -3.8409,0 0,-14.44775 c 0,-1.15233 -0.056,-2.15257 -0.1677,-3.00073 -0.1118,-0.84813 -0.3357,-1.55199 -0.6716,-2.11157 -0.336,-0.55955 -0.8001,-0.97533 -1.3924,-1.24732 -0.5923,-0.27195 -1.3684,-0.40794 -2.3283,-0.40796 -1.5997,2e-5 -2.84746,0.44802 -3.74344,1.344 -0.89602,0.89601 -1.53591,2.17555 -1.91967,3.83862 l 0,16.03271 z"
       style=""
       id="path3851" />
    <path
       d="m 1030.6484,150.68246 3.9844,0 0,33.60058 -3.9844,0 z"
       style=""
       id="path3853" />
    <path
       d="m 1058.2295,184.28304 0,-13.68017 c 0,-2.49608 -0.3601,-4.37596 -1.0803,-5.63965 -0.7203,-1.26365 -2.0403,-1.89549 -3.9602,-1.89551 -1.6963,2e-5 -3.0965,0.45583 -4.2005,1.36743 -1.104,0.91164 -1.8796,2.05544 -2.3269,3.4314 l 0,16.4165 -3.8408,0 0,-24 2.688,0 0.7207,2.92823 0.1919,0 c 0.7676,-1.0244 1.7993,-1.86448 3.0952,-2.52027 1.2959,-0.65573 2.8398,-0.98362 4.6318,-0.98364 1.3125,2e-5 2.4646,0.15188 3.4563,0.45557 0.9917,0.30373 1.8157,0.83962 2.472,1.60766 0.6562,0.76809 1.1523,1.80007 1.4882,3.09595 0.336,1.29592 0.5039,2.93605 0.5039,4.92041 l 0,14.49609 z"
       style=""
       id="path3855" />
    <path
       d="m 1087.3467,162.29867 -2.5913,-4.84717 -0.1919,0 0.479,4.84717 0,21.98437 -3.7442,0 0,-34.12793 2.1123,0 16.0796,22.41651 2.4961,4.60693 0.2403,0 -0.5274,-4.60693 0,-21.88916 3.7442,0 0,34.12793 -2.1123,0 z"
       style=""
       id="path3857" />
    <path
       d="m 1111.415,172.28304 c 0,-4.06443 0.9038,-7.17649 2.7115,-9.33618 1.8076,-2.15964 4.4077,-3.23948 7.8003,-3.2395 1.7919,2e-5 3.352,0.29592 4.6801,0.8877 1.3281,0.59182 2.4241,1.43972 3.2879,2.5437 0.8637,1.10402 1.5036,2.43214 1.9197,3.98437 0.4159,1.55226 0.624,3.27223 0.624,5.15991 0,4.06446 -0.9041,7.17652 -2.7122,9.33619 -1.8081,2.15966 -4.408,3.2395 -7.7995,3.2395 -1.792,0 -3.3521,-0.2959 -4.6802,-0.8877 -1.3281,-0.59179 -2.4241,-1.43969 -3.2879,-2.5437 -0.8637,-1.104 -1.5036,-2.43212 -1.9196,-3.98437 -0.4161,-1.55224 -0.6241,-3.27221 -0.6241,-5.15992 z m 3.9829,0 c 0,1.21583 0.1202,2.3838 0.3604,3.50391 0.2402,1.12012 0.6162,2.0962 1.1279,2.92822 0.5117,0.83204 1.1836,1.50391 2.0157,2.01563 0.832,0.51172 1.8403,0.76758 3.0249,0.76758 4.3515,0.0322 6.5273,-3.03955 6.5273,-9.21534 0,-1.24803 -0.1199,-2.43211 -0.3596,-3.55224 -0.2398,-1.1201 -0.6158,-2.09618 -1.1279,-2.92822 -0.5123,-0.83202 -1.1844,-1.49583 -2.0164,-1.99146 -0.8321,-0.49558 -1.8399,-0.74339 -3.0234,-0.74341 -4.3526,-0.0322 -6.5289,3.03957 -6.5289,9.21533 z"
       style=""
       id="path3859" />
    <path
       d="m 1149.2734,163.97884 c -0.9599,-0.32029 -1.8716,-0.48044 -2.7348,-0.48046 -1.376,2e-5 -2.4641,0.37624 -3.2644,1.12866 -0.8003,0.75246 -1.2962,1.70436 -1.4876,2.85571 l 0,16.80029 -3.8408,0 0,-24 2.688,0 0.7207,2.92823 0.1919,0 c 0.6074,-1.08787 1.3352,-1.92796 2.1833,-2.52027 0.8482,-0.59226 1.9285,-0.8884 3.241,-0.88842 0.9277,2e-5 1.9673,0.16018 3.1187,0.48046 z"
       style=""
       id="path3861" />
    <path
       d="m 1169.3105,160.28304 5.5196,14.01563 1.1997,4.6084 0.097,0 0.9126,-4.70362 4.2714,-13.92041 3.6475,0 -8.064,24.52735 -1.872,0 -6.2871,-15.83936 -0.9126,-3.93603 -0.1436,0 -0.9609,3.98437 -6.0469,15.79102 -1.8721,0 -8.3525,-24.52735 4.1763,0 4.7519,13.96729 0.8159,4.65674 0.048,0 1.1513,-4.75196 5.1358,-13.87207 z"
       style=""
       id="path3863" />
    <path
       d="m 1188.1245,162.05843 c 1.2158,-0.73532 2.6318,-1.27902 4.2481,-1.6311 1.6162,-0.35203 3.3041,-0.52805 5.0639,-0.52808 1.6641,3e-5 3,0.22391 4.0078,0.67164 1.0078,0.44777 1.7759,1.03176 2.3042,1.75195 0.5283,0.72023 0.8804,1.51223 1.0562,2.37598 0.1757,0.86378 0.2636,1.7278 0.2637,2.59204 -1e-4,1.91993 -0.048,3.792 -0.1443,5.61621 -0.096,1.82423 -0.1443,3.55225 -0.1443,5.18408 0,1.1836 0.048,2.30347 0.1443,3.35962 0.096,1.05615 0.2722,2.03247 0.528,2.92895 l -2.8315,0 -1.0078,-3.36035 -0.2402,0 c -0.2881,0.44825 -0.6483,0.88819 -1.0804,1.31983 -0.4321,0.43164 -0.9521,0.81543 -1.56,1.15136 -0.6079,0.33594 -1.3118,0.61597 -2.1116,0.84009 -0.7998,0.22412 -1.7119,0.33618 -2.7363,0.33618 -1.0235,0 -1.9754,-0.15991 -2.8557,-0.47973 -0.8804,-0.31983 -1.6404,-0.77588 -2.2801,-1.36817 -0.6396,-0.59228 -1.1435,-1.30444 -1.5117,-2.13647 -0.3681,-0.83203 -0.5522,-1.77588 -0.5522,-2.83155 0,-1.40819 0.2881,-2.58421 0.8642,-3.52807 0.5762,-0.94384 1.3843,-1.69579 2.4243,-2.25586 1.0401,-0.56005 2.2879,-0.95995 3.7435,-1.19971 1.4555,-0.23973 3.0637,-0.3596 4.8244,-0.35962 0.4473,2e-5 0.887,2e-5 1.3191,0 0.4321,2e-5 0.8723,0.0318 1.3206,0.0952 0.096,-0.95995 0.1435,-1.82372 0.1435,-2.59131 0,-1.76072 -0.352,-2.9929 -1.0561,-3.69653 -0.7041,-0.7036 -1.9839,-1.0554 -3.8394,-1.05542 -0.5439,2e-5 -1.1279,0.0398 -1.7519,0.11938 -0.6241,0.0796 -1.2642,0.19143 -1.9205,0.33545 -0.6562,0.14406 -1.2802,0.32009 -1.872,0.52808 -0.5918,0.20802 -1.1118,0.43996 -1.5601,0.6958 z m 6.8159,19.24805 c 0.8965,0 1.6966,-0.11987 2.4002,-0.35962 0.7036,-0.23974 1.3115,-0.5437 1.8237,-0.91186 0.5122,-0.36816 0.9363,-0.77612 1.2722,-1.22388 0.3359,-0.44775 0.584,-0.87963 0.7442,-1.29565 l 0,-3.98438 c -0.4483,-0.0322 -0.9043,-0.0564 -1.3682,-0.0725 -0.4639,-0.0161 -0.9199,-0.0242 -1.3682,-0.0242 -0.9922,10e-6 -1.9602,0.0562 -2.904,0.16846 -0.9439,0.11231 -1.7759,0.32032 -2.4961,0.62402 -0.7202,0.30372 -1.2962,0.71974 -1.7278,1.24805 -0.4316,0.52833 -0.6475,1.19239 -0.6475,1.99219 0,1.12012 0.3999,2.04004 1.1998,2.75976 0.7997,0.71973 1.8237,1.07959 3.0717,1.07959 z"
       style=""
       id="path3865" />
    <path
       d="m 1218.877,175.83529 1.3447,4.6084 0.2387,0 1.0562,-4.65674 4.6567,-15.50391 3.8877,0 -7.1045,21.55225 c -0.5439,1.56738 -1.0798,3.08716 -1.6076,4.55933 -0.5279,1.47216 -1.1119,2.78417 -1.752,3.93603 -0.6401,1.15185 -1.3601,2.07177 -2.1599,2.75977 -0.7998,0.68798 -1.728,1.03197 -2.7847,1.03198 -1.1513,-1e-5 -2.0952,-0.15968 -2.8315,-0.479 l 0.6724,-3.31202 c 0.416,0.16015 0.8159,0.24023 1.1997,0.24024 0.8964,-1e-5 1.7607,-0.47218 2.5927,-1.41651 0.8321,-0.94434 1.5201,-2.56836 2.064,-4.87207 l -9.6489,-24 4.4165,0 z"
       style=""
       id="path3867" />
  </g>
</svg>
